<?xml version="1.0" encoding="utf-8"?>
<!DOCTYPE svg PUBLIC "-//W3C//DTD SVG 1.1//EN" "http://www.w3.org/Graphics/SVG/1.1/DTD/svg11.dtd">
<svg version="1.1" xmlns="http://www.w3.org/2000/svg" xmlns:xlink="http://www.w3.org/1999/xlink" x="0px" y="0px" viewBox="0 0 1000 1000" enable-background="new 0 0 1000 1000" xml:space="preserve">
<metadata> Svg Vector Icons : http://www.onlinewebfonts.com/icon </metadata>
<g><g><path d="M322.1,636.2c1.5,0.2,2.9,0.2,4.5,0.2c47.4,0,136.4-45.5,187.7-170.6c16.3-39.8,17.3-70.9,2.9-92.3c-9.3-13.9-24.4-22.8-44.3-26.6c16.3-10,34.3-17.7,42.6-20.8c15.8-4.6,26.9-3.1,34.5,5.3c14.9,16.8,13.9,55.8,12.2,69.3c-0.9,7,3.3,13.9,10,16.5c6.7,2.6,14.2,0.3,18.4-5.5c29.3-41,24-92.3,23.9-94.2c-6.5-73.4-49.6-84.4-74.6-84.4c-27.8,0-62.1,12.5-102.1,37.1c-32.9,20.2-127.8,106.4-126.5,190.1c0.7,39.3,23,62.3,61.3,63.1c-15.8,13.6-31.4,19.2-48.2,16.5c-38.6-6.5-29.3-65.7-29-68.1c1.4-7.9-3.4-15.4-11-17.7c-7.7-2.2-15.8,1.5-18.9,8.8c-22.3,51.3-22.8,100.9-1.5,135.9C278,620.9,299.1,634.6,322.1,636.2z"/><path d="M900.7,123.9c-37.6-33.5-84.9-50.3-140.5-50.3c-147.2,0-304.1,118.1-310.6,123c-6.7,5.1-8.2,15.1-3.3,22c5,6.9,14.4,9.6,21.4,4.8l5.1-1.7c42.7-27.5,96.6-45.6,148.1-38.3c21.1,3.1,42.4,13.4,53.4,31.7c10.8,17.8,10.6,40,8.6,60.7c-11.5,116.2-71.9,222.2-155.1,302.5c-52.2,50.3-125.1,106.2-200.6,111.2c-35.2,2.2-60.7-5.8-77.7-23.8c-25.6-27.1-23.3-68.8-23.3-69.2c0.3-6.5-3.3-12.7-9.3-15.3c-5.8-2.7-12.9-1.5-17.5,3.3c-28.3,28.3-34.8,84.4-35.3,126.1c-82.4-147.7,58.3-381.5,59.9-384c3.6-6,2.9-13.7-1.9-18.9c-4.8-5.1-12.4-6.5-18.7-3.3C102.5,356.5,31.6,550.7,28.7,559.1C-4.4,654.9,7.1,759,58.5,831.3c43.8,61.3,112.9,95.1,194.8,95.1c75.7,0,160.8-27.6,252.9-82c287.6-169.7,352.3-424,366.9-527.7c71.2,143.8-48.4,348.5-49.8,350.6c-3.9,6.5-2.6,15.1,3.3,19.9c5.8,5,14.4,5,20.2,0c81.3-68.6,141.4-209.5,143.1-335.3C991.2,255.9,960.5,177.1,900.7,123.9z"/></g><g></g><g></g><g></g><g></g><g></g><g></g><g></g><g></g><g></g><g></g><g></g><g></g><g></g><g></g><g></g></g>
</svg>