<svg width="488" height="28" viewBox="0 0 488 28" stroke="(--5)" xmlns="http://www.w3.org/2000/svg">
<path d="M315 9H322.5H330" stroke-width="3" stroke-linecap="round"/>
<path d="M295 16H302.5H310" stroke-width="3" stroke-linecap="round"/>
<path d="M250 24H257.5H265" stroke-width="3" stroke-linecap="round"/>
<path d="M357 26H364.5H372" stroke-width="3" stroke-linecap="round"/>
<path d="M386 3H393.5H401" stroke-width="3" stroke-linecap="round"/>
<path d="M399 16H406.5H414" stroke-width="3" stroke-linecap="round"/>
<path d="M430 23H437.5H445" stroke-width="3" stroke-linecap="round"/>
<path d="M471 2H478.5H486" stroke-width="3" stroke-linecap="round"/>
<path d="M67 9H74.5H82" stroke-width="3" stroke-linecap="round"/>
<path d="M47 16H54.5H62" stroke-width="3" stroke-linecap="round"/>
<path d="M2 24H9.5H17" stroke-width="3" stroke-linecap="round"/>
<path d="M109 26H116.5H124" stroke-width="3" stroke-linecap="round"/>
<path d="M138 3H145.5H153" stroke-width="3" stroke-linecap="round"/>
<path d="M151 16H158.5H166" stroke-width="3" stroke-linecap="round"/>
<path d="M182 23H189.5H197" stroke-width="3" stroke-linecap="round"/>
<path d="M223 2H230.5H238" stroke-width="3" stroke-linecap="round"/>
</svg>
