<svg width="74" height="74" viewBox="0 0 74 74" fill="none" xmlns="http://www.w3.org/2000/svg">
<path d="M37 5.55C37 2.48482 39.4986 -0.0426086 42.5293 0.415465C47.4024 1.152 52.0985 2.85774 56.3324 5.45231C62.1505 9.01765 66.8694 14.1225 69.9672 20.2023C73.0651 26.2822 74.4213 33.1004 73.8859 39.903C73.4963 44.8534 72.116 49.6552 69.8476 54.0305C68.4367 56.7517 64.9234 57.2875 62.4436 55.4858V55.4858C59.9638 53.6842 59.4785 50.2258 60.7116 47.4196C61.8744 44.7736 62.5913 41.9394 62.8202 39.0321C63.1949 34.2703 62.2456 29.4976 60.0771 25.2416C57.9086 20.9857 54.6054 17.4124 50.5327 14.9166C48.0461 13.3928 45.3318 12.307 42.5077 11.6924C39.5126 11.0406 37 8.61518 37 5.55V5.55Z" fill="#329691"/>
<path d="M37 68.45C37 71.5152 34.5014 74.0426 31.4707 73.5845C26.5976 72.848 21.9015 71.1423 17.6676 68.5477C11.8495 64.9824 7.13063 59.8775 4.03276 53.7977C0.934902 47.7178 -0.421312 40.8996 0.114063 34.097C0.503666 29.1466 1.88397 24.3448 4.15244 19.9695C5.56329 17.2483 9.07663 16.7125 11.5564 18.5142V18.5142C14.0362 20.3158 14.5215 23.7742 13.2884 26.5804C12.1256 29.2264 11.4087 32.0606 11.1798 34.9679C10.8051 39.7297 11.7544 44.5024 13.9229 48.7584C16.0914 53.0143 19.3946 56.5876 23.4673 59.0834C25.9539 60.6072 28.6682 61.693 31.4923 62.3076C34.4874 62.9594 37 65.3848 37 68.45V68.45Z" fill="#329691"/>
</svg>
