<svg width="80" height="80" viewBox="0 0 80 80" fill="none" xmlns="http://www.w3.org/2000/svg">
<path d="M13.8371 13.8371C12.6655 12.6655 12.6586 10.7563 13.9146 9.67579C21.1461 3.45463 30.395 1.18324e-05 40 1.11263e-05C49.605 1.04202e-05 58.8539 3.45463 66.0854 9.67579C67.3414 10.7563 67.3345 12.6655 66.1629 13.8371V13.8371C64.9914 15.0086 63.0996 14.9969 61.8294 13.9331C55.7346 8.8287 48.0131 6.00001 40 6.00001C31.9869 6.00001 24.2654 8.8287 18.1706 13.9331C16.9004 14.9969 15.0086 15.0086 13.8371 13.8371V13.8371Z" />
<path d="M66.163 66.163C67.3345 67.3346 67.3414 69.2437 66.0854 70.3243C58.8539 76.5454 49.605 80 40 80C30.395 80 21.1461 76.5454 13.9146 70.3243C12.6586 69.2437 12.6655 67.3346 13.8371 66.163V66.163C15.0086 64.9914 16.9004 65.0031 18.1706 66.067C24.2654 71.1714 31.9869 74 40 74C48.0131 74 55.7346 71.1713 61.8294 66.0669C63.0996 65.0031 64.9914 64.9914 66.163 66.163V66.163Z" />
</svg>
