<svg width="60" height="60" viewBox="0 0 60 60" fill="none" xmlns="http://www.w3.org/2000/svg">
<path d="M56.25 30C58.3211 30 60.0241 31.6854 59.7659 33.7403C59.3343 37.1749 58.3103 40.5186 56.7302 43.6197C54.5809 47.838 51.4637 51.4878 47.6336 54.2705C43.8034 57.0533 39.3691 58.89 34.693 59.6307C31.2554 60.1751 27.7589 60.1158 24.3591 59.4649C22.3249 59.0755 21.2483 56.9349 21.8883 54.9652V54.9652C22.5283 52.9955 24.6449 51.9514 26.6935 52.2557C28.9502 52.591 31.252 52.5822 33.5198 52.223C37.0268 51.6675 40.3526 50.29 43.2252 48.2029C46.0978 46.1158 48.4356 43.3785 50.0476 40.2148C51.09 38.169 51.8097 35.9826 52.1882 33.7327C52.5318 31.6903 54.1789 30 56.25 30V30Z" />
<path d="M3.75 30C1.67893 30 -0.0241448 28.3146 0.234072 26.2597C0.665661 22.8251 1.68971 19.4814 3.26981 16.3803C5.41914 12.162 8.53631 8.51225 12.3664 5.72949C16.1966 2.94673 20.6309 1.10996 25.307 0.369349C28.7446 -0.175116 32.2411 -0.115786 35.6409 0.535105C37.6751 0.924528 38.7517 3.06507 38.1117 5.03477V5.03477C37.4717 7.00447 35.3551 8.04863 33.3065 7.74428C31.0498 7.40901 28.748 7.41784 26.4802 7.77701C22.9732 8.33247 19.6474 9.71005 16.7748 11.7971C13.9022 13.8842 11.5644 16.6215 9.95235 19.7852C8.90999 21.831 8.19028 24.0174 7.81178 26.2673C7.46819 28.3097 5.82107 30 3.75 30V30Z" />
</svg>
