<svg width="58" height="58" viewBox="0 0 58 58" fill="none" xmlns="http://www.w3.org/2000/svg">
<path d="M54.955 29C56.6367 29 58.0165 30.367 57.8403 32.0394C57.4691 35.5616 56.4548 38.9948 54.8392 42.1657C52.7615 46.2434 49.7482 49.7715 46.0458 52.4615C42.3433 55.1515 38.0568 56.927 33.5366 57.643C30.0216 58.1997 26.443 58.1034 22.9785 57.368C21.3335 57.0188 20.4598 55.2841 20.9795 53.6847V53.6847C21.4991 52.0853 23.2162 51.2316 24.8703 51.5347C27.4106 52.0003 30.0187 52.0342 32.5839 51.6279C36.1548 51.0624 39.5412 49.6597 42.4662 47.5346C45.3911 45.4095 47.7716 42.6223 49.413 39.4009C50.5921 37.0868 51.3657 34.5959 51.7079 32.0361C51.9308 30.3692 53.2733 29 54.955 29V29Z" fill="#F2FFDA"/>
<path d="M3.045 29C1.36329 29 -0.0165436 27.633 0.159714 25.9606C0.530909 22.4384 1.54516 19.0052 3.16081 15.8343C5.2385 11.7566 8.25176 8.22851 11.9542 5.53851C15.6567 2.84851 19.9432 1.07296 24.4634 0.357038C27.9784 -0.199679 31.557 -0.103354 35.0215 0.632019C36.6665 0.981202 37.5402 2.71593 37.0205 4.31533V4.31533C36.5009 5.91473 34.7838 6.7684 33.1297 6.46527C30.5894 5.99975 27.9813 5.96577 25.4161 6.37206C21.8452 6.93764 18.4588 8.34032 15.5338 10.4654C12.6089 12.5905 10.2284 15.3777 8.58704 18.5991C7.40795 20.9132 6.63431 23.4041 6.29206 25.9639C6.06919 27.6308 4.72671 29 3.045 29V29Z" fill="#F2FFDA"/>
</svg>
