<svg width="12" height="12" viewBox="0 0 12 12" fill="none" xmlns="http://www.w3.org/2000/svg">
<path d="M2.39376 9.60627C2.04228 9.95775 1.46598 9.96106 1.17098 9.56101C0.790004 9.04437 0.493228 8.46833 0.293663 7.85413C0.0940979 7.23993 -0.0043904 6.59947 0.000151839 5.95756C0.00366901 5.46052 0.471855 5.12446 0.962792 5.20221V5.20221C1.45373 5.27997 1.77845 5.74393 1.80687 6.24017C1.8274 6.59858 1.89386 6.95412 2.00556 7.2979C2.11727 7.64168 2.27248 7.96838 2.46654 8.27041C2.73523 8.68858 2.74523 9.2548 2.39376 9.60627V9.60627Z" />
<path d="M9.60624 2.39379C9.95772 2.04231 10.534 2.039 10.829 2.43905C11.21 2.95569 11.5068 3.53173 11.7063 4.14593C11.9059 4.76013 12.0044 5.40059 11.9998 6.0425C11.9963 6.53954 11.5281 6.8756 11.0372 6.79785V6.79785C10.5463 6.72009 10.2215 6.25613 10.1931 5.75989C10.1726 5.40148 10.1061 5.04594 9.99444 4.70216C9.88274 4.35838 9.72753 4.03167 9.53347 3.72965C9.26477 3.31148 9.25477 2.74526 9.60624 2.39379V2.39379Z" />
<path d="M2.39376 2.39375C2.04229 2.04228 2.03897 1.46598 2.43902 1.17098C2.95566 0.790002 3.5317 0.493225 4.1459 0.29366C4.7601 0.0940945 5.40056 -0.00439393 6.04247 0.000148107C6.53951 0.00366512 6.87557 0.471851 6.79782 0.962788V0.962788C6.72006 1.45372 6.2561 1.77845 5.75986 1.80687C5.40145 1.8274 5.04591 1.89386 4.70213 2.00556C4.35835 2.11726 4.03165 2.27247 3.72962 2.46653C3.31145 2.73523 2.74523 2.74523 2.39376 2.39375V2.39375Z" />
<path d="M9.60625 9.60624C9.95772 9.95772 9.96103 10.534 9.56098 10.829C9.04434 11.21 8.4683 11.5068 7.8541 11.7063C7.2399 11.9059 6.59944 12.0044 5.95753 11.9999C5.46049 11.9963 5.12443 11.5281 5.20219 11.0372V11.0372C5.27994 10.5463 5.7439 10.2216 6.24014 10.1931C6.59855 10.1726 6.95409 10.1061 7.29787 9.99444C7.64165 9.88274 7.96836 9.72753 8.27038 9.53347C8.68855 9.26477 9.25477 9.25477 9.60625 9.60624V9.60624Z" />
</svg>
