<svg fill="#000000" version="1.1" id="Capa_1" xmlns="http://www.w3.org/2000/svg" xmlns:xlink="http://www.w3.org/1999/xlink" 
	 width="800px" height="800px" viewBox="0 0 162.276 162.275"
	 xml:space="preserve">
<g>
	<path d="M134.37,110.516c-10.078-11.101-24.509-20.648-41.218-24.893c13.518-9.098,22.834-27.03,22.834-43.178
		c0-22.789-18.48-41.272-41.263-41.272c-22.789,0-41.272,18.475-41.272,41.272c0,16.148,9.31,34.081,22.834,43.178
		C23.955,93.825,0,121.89,0,142.685c0,12.294,37.348,18.426,74.699,18.419l-20.914-20.916l17.622-42.6h-0.183l-6.847-7.849
		c3.318,1.188,6.765,1.905,10.346,1.905c3.574,0,7.015-0.718,10.317-1.899l-6.838,7.837h-0.176l16.648,40.243v3.331l-19.939,19.941
		c13.125,0,26.247-0.761,37.756-2.277h49.785v-38.69v-9.614H134.37z M156.041,152.592H100.91v-30.465l27.56,17.915l27.56-17.915
		v30.465H156.041z M128.481,134.671l-27.56-17.92h55.119L128.481,134.671z"/>
</g>
</svg>